<?xml version="1.0" encoding="UTF-8"?>
<!DOCTYPE svg PUBLIC "-//W3C//DTD SVG 1.1//EN" "http://www.w3.org/Graphics/SVG/1.1/DTD/svg11.dtd">
<!-- Creator: CorelDRAW X7 -->
<svg xmlns="http://www.w3.org/2000/svg" xml:space="preserve" width="51.4564mm" height="24.944mm" version="1.1" style="shape-rendering:geometricPrecision; text-rendering:geometricPrecision; image-rendering:optimizeQuality; fill-rule:evenodd; clip-rule:evenodd"
viewBox="0 0 1273 617"
 xmlns:xlink="http://www.w3.org/1999/xlink">
 <defs>
  <style type="text/css">
   <![CDATA[
    .fil2 {fill:#FEFEFE}
    .fil1 {fill:#EDA10B}
    .fil0 {fill:#AE2220}
    .fil4 {fill:#FEFEFE;fill-rule:nonzero}
    .fil3 {fill:black;fill-rule:nonzero}
   ]]>
  </style>
 </defs>
 <g id="Capa_x0020_1">
  <metadata id="CorelCorpID_0Corel-Layer"/>
  <rect class="fil0" x="449" y="1" width="374" height="374"/>
  <rect class="fil1" y="1" width="374" height="374"/>
  <rect class="fil2" y="452" width="1273" height="165"/>
  <path class="fil3" d="M127 529l-41 0 0 -23c0,-6 0,-10 -1,-12 -1,-1 -3,-2 -6,-2 -3,0 -5,1 -6,3 -1,2 -1,6 -1,12l0 60c0,7 0,11 1,13 1,2 3,3 6,3 3,0 5,-1 6,-3 1,-2 1,-7 1,-14l0 -16 41 0 0 5c0,13 -1,23 -3,28 -3,6 -8,11 -15,15 -8,4 -18,7 -29,7 -12,0 -22,-2 -30,-6 -8,-3 -13,-8 -15,-15 -3,-6 -4,-15 -4,-28l0 -38c0,-9 0,-16 1,-21 1,-4 3,-9 7,-13 4,-5 9,-8 16,-10 7,-3 15,-4 23,-4 12,0 22,2 30,6 8,3 13,8 16,14 2,6 3,14 3,27l0 12z"/>
  <path id="1" class="fil3" d="M235 548c0,13 -1,22 -1,28 -1,5 -3,10 -7,15 -4,4 -10,8 -16,10 -7,2 -15,4 -23,4 -9,0 -16,-2 -23,-4 -7,-2 -12,-6 -16,-10 -4,-5 -6,-10 -7,-15 -1,-5 -1,-14 -1,-28l0 -22c0,-13 0,-22 1,-27 0,-6 3,-11 7,-15 4,-5 9,-8 15,-11 7,-2 15,-3 24,-3 8,0 16,1 22,3 7,2 12,6 16,10 4,5 7,10 8,15 0,5 1,15 1,28l0 22zm-41 -42c0,-6 0,-10 -1,-12 -1,-1 -3,-2 -5,-2 -2,0 -4,0 -5,2 -1,1 -2,5 -2,12l0 60c0,8 1,12 2,14 0,2 2,3 5,3 2,0 4,-1 5,-3 1,-2 1,-7 1,-15l0 -59z"/>
  <polygon id="2" class="fil3" points="341,472 341,602 305,602 284,543 284,602 250,602 250,472 284,472 307,531 307,472 "/>
  <path id="3" class="fil3" d="M444 512l-38 0 0 -10c0,-4 -1,-7 -2,-8 -1,-2 -2,-2 -4,-2 -3,0 -5,1 -6,2 -1,2 -2,4 -2,8 0,4 1,7 2,9 2,3 5,5 12,8 18,9 29,17 34,22 5,6 7,15 7,28 0,9 -1,16 -4,20 -3,4 -8,8 -15,11 -8,3 -16,5 -26,5 -11,0 -20,-2 -28,-6 -8,-3 -13,-7 -15,-13 -3,-5 -4,-12 -4,-22l0 -9 38 0 0 16c0,5 1,8 2,10 1,1 3,2 5,2 3,0 5,-1 6,-3 2,-2 2,-4 2,-8 0,-7 -1,-12 -3,-15 -3,-2 -9,-6 -19,-12 -11,-5 -17,-9 -21,-12 -3,-2 -6,-6 -8,-10 -2,-4 -3,-10 -3,-17 0,-10 2,-17 5,-22 3,-4 8,-8 14,-10 7,-3 16,-4 25,-4 11,0 20,1 27,4 8,3 13,6 15,11 2,4 4,11 4,22l0 5z"/>
  <polygon id="4" class="fil3" points="542,472 542,498 518,498 518,602 477,602 477,498 453,498 453,472 "/>
  <path id="5" class="fil3" d="M551 472l29 0c19,0 32,1 39,2 7,1 13,5 17,10 4,5 6,13 6,24 0,10 -1,17 -4,20 -3,3 -9,6 -18,6 8,2 13,4 16,7 3,3 5,5 5,7 1,3 1,9 1,20l0 34 -38 0 0 -43c0,-7 0,-11 -2,-13 -1,-2 -4,-3 -10,-3l0 59 -41 0 0 -130zm41 22l0 29c5,0 8,0 10,-1 1,-1 2,-5 2,-10l0 -8c0,-4 -1,-6 -2,-8 -2,-1 -5,-2 -10,-2z"/>
  <path id="6" class="fil3" d="M751 472l0 87c0,10 -1,17 -2,21 0,4 -3,8 -6,12 -4,4 -9,7 -16,9 -6,2 -13,4 -22,4 -9,0 -17,-2 -24,-4 -7,-3 -13,-6 -16,-10 -4,-4 -6,-9 -7,-13 0,-5 -1,-14 -1,-29l0 -77 41 0 0 97c0,6 1,10 1,11 1,2 3,3 5,3 2,0 4,-1 5,-3 0,-2 1,-6 1,-12l0 -96 41 0z"/>
  <path id="7" class="fil3" d="M862 529l-41 0 0 -23c0,-6 -1,-10 -2,-12 0,-1 -2,-2 -5,-2 -4,0 -6,1 -7,3 -1,2 -1,6 -1,12l0 60c0,7 0,11 1,13 1,2 3,3 6,3 3,0 5,-1 6,-3 1,-2 2,-7 2,-14l0 -16 41 0 0 5c0,13 -2,23 -4,28 -2,6 -7,11 -15,15 -8,4 -18,7 -29,7 -12,0 -22,-2 -30,-6 -7,-3 -13,-8 -15,-15 -3,-6 -4,-15 -4,-28l0 -38c0,-9 1,-16 1,-21 1,-4 3,-9 7,-13 4,-5 9,-8 16,-10 7,-3 15,-4 24,-4 12,0 22,2 29,6 8,3 13,8 16,14 2,6 4,14 4,27l0 12z"/>
  <path id="8" class="fil3" d="M971 529l-41 0 0 -23c0,-6 0,-10 -1,-12 -1,-1 -3,-2 -6,-2 -3,0 -5,1 -6,3 -1,2 -1,6 -1,12l0 60c0,7 0,11 1,13 1,2 3,3 6,3 3,0 5,-1 6,-3 1,-2 1,-7 1,-14l0 -16 41 0 0 5c0,13 -1,23 -3,28 -2,6 -8,11 -15,15 -8,4 -18,7 -29,7 -12,0 -22,-2 -30,-6 -8,-3 -13,-8 -15,-15 -3,-6 -4,-15 -4,-28l0 -38c0,-9 0,-16 1,-21 1,-4 3,-9 7,-13 4,-5 9,-8 16,-10 7,-3 15,-4 23,-4 12,0 22,2 30,6 8,3 13,8 16,14 2,6 3,14 3,27l0 12z"/>
  <polygon id="9" class="fil3" points="1027,472 1027,602 986,602 986,472 "/>
  <path id="10" class="fil3" d="M1136 548c0,13 0,22 -1,28 -1,5 -3,10 -7,15 -4,4 -9,8 -16,10 -7,2 -14,4 -23,4 -9,0 -16,-2 -23,-4 -6,-2 -12,-6 -16,-10 -4,-5 -6,-10 -7,-15 -1,-5 -1,-14 -1,-28l0 -22c0,-13 0,-22 1,-27 1,-6 3,-11 7,-15 4,-5 9,-8 16,-11 6,-2 14,-3 23,-3 8,0 16,1 22,3 7,2 12,6 16,10 5,5 7,10 8,15 1,5 1,15 1,28l0 22zm-41 -42c0,-6 0,-10 -1,-12 -1,-1 -3,-2 -5,-2 -2,0 -4,0 -5,2 -1,1 -1,5 -1,12l0 60c0,8 0,12 1,14 0,2 2,3 5,3 2,0 4,-1 5,-3 1,-2 1,-7 1,-15l0 -59z"/>
  <polygon id="11" class="fil3" points="1242,472 1242,602 1207,602 1185,543 1185,602 1151,602 1151,472 1185,472 1208,531 1208,472 "/>
  <path class="fil4" d="M1020 205l-53 24 0 -172 53 0 0 148zm-53 170l0 -80 121 -54 0 -190c0,-14 -6,-26 -17,-36 -11,-10 -24,-15 -39,-15l-133 0 0 375 68 0zm117 -324l0 192 121 -54 0 129 -53 0 0 -59 -68 30 0 35c0,30 0,0 0,51l133 0c16,0 29,-5 40,-15 11,-10 16,-22 16,-36l0 -232 -121 54 0 -89 53 0 0 29 68 -29c0,-37 0,-6 0,-57l-133 0c-15,0 -29,5 -40,15 -11,9 -16,22 -16,36z"/>
 </g>
</svg>
